<svg xmlns="http://www.w3.org/2000/svg" width="512" height="512" viewBox="0 0 512 512">
  <g id="HobbyHub" transform="translate(0)">
    <rect id="Rectangle_1" data-name="Rectangle 1" width="512" height="512" rx="88" fill="#fff"/>
    <path id="Path_1" data-name="Path 1" d="M374.21,116.461c-42.429,0-80.689,19.5-107.72,50.746-27.025-31.248-65.286-50.746-107.714-50.746-81.9,0-148.283,72.631-148.283,162.23,0,125.5,256,299.579,256,299.579s256-174.076,256-299.579C522.492,189.092,456.1,116.461,374.21,116.461Zm0,0" transform="translate(-10.492 -91.366)" fill="#ff5050"/>
    <path id="Path_2" data-name="Path 2" d="M43.865,26.856l1,60.789,91.916.511-1.8-59.463a46.511,46.511,0,0,1,.172-5.906,31.29,31.29,0,0,1,.9-5.092,21.8,21.8,0,0,1,1.622-4.28,16.766,16.766,0,0,1,2.343-3.469,17.486,17.486,0,0,1,2.931-2.665,16.345,16.345,0,0,1,3.389-1.866,17.994,17.994,0,0,1,3.845-1.07,22.686,22.686,0,0,1,4.3-.277,24.368,24.368,0,0,1,4.384.5,20.5,20.5,0,0,1,3.967,1.257,19.421,19.421,0,0,1,3.553,2.013,20.972,20.972,0,0,1,3.142,2.769,19.115,19.115,0,0,1,2.6,3.54,23.939,23.939,0,0,1,1.921,4.329,32.916,32.916,0,0,1,1.245,5.121,47.167,47.167,0,0,1,.569,5.919l6.008,164.472a49.779,49.779,0,0,1-.139,6.236,34.019,34.019,0,0,1-.9,5.423,24.07,24.07,0,0,1-1.671,4.609,18.709,18.709,0,0,1-2.441,3.793,20.308,20.308,0,0,1-3.056,2.98,18.34,18.34,0,0,1-3.515,2.168,19.206,19.206,0,0,1-3.975,1.354,23.047,23.047,0,0,1-4.437.537,23.285,23.285,0,0,1-4.519-.3,19.026,19.026,0,0,1-4.076-1.155,17.85,17.85,0,0,1-3.629-2.012,19.586,19.586,0,0,1-3.179-2.87,19.8,19.8,0,0,1-2.61-3.72,25.557,25.557,0,0,1-1.922-4.56,35.763,35.763,0,0,1-1.234-5.4,51.547,51.547,0,0,1-.545-6.226l-2.18-71.943-92.386.275,1.207,73.6a49.977,49.977,0,0,1-.286,6.449,34.565,34.565,0,0,1-1.085,5.609,24.938,24.938,0,0,1-1.886,4.768,19.888,19.888,0,0,1-2.691,3.925,22.107,22.107,0,0,1-3.33,3.085,20.291,20.291,0,0,1-3.8,2.246,21.4,21.4,0,0,1-4.276,1.4,26.709,26.709,0,0,1-9.573.255,20.493,20.493,0,0,1-4.329-1.191,18.735,18.735,0,0,1-3.833-2.078,19.927,19.927,0,0,1-6.039-6.812,25.372,25.372,0,0,1-1.953-4.716,35.488,35.488,0,0,1-1.2-5.581,51.387,51.387,0,0,1-.444-6.439L.253,25.976a47.751,47.751,0,0,1,.306-6.1A32.428,32.428,0,0,1,1.6,14.62,22.866,22.866,0,0,1,3.385,10.2,17.808,17.808,0,0,1,5.9,6.619,18.038,18.038,0,0,1,9.042,3.87,17.664,17.664,0,0,1,12.71,1.947,20.289,20.289,0,0,1,16.9.848,26.306,26.306,0,0,1,21.615.569a26.667,26.667,0,0,1,4.668.52,22.031,22.031,0,0,1,4.205,1.3,20.385,20.385,0,0,1,3.746,2.081,21.5,21.5,0,0,1,3.291,2.861,19.206,19.206,0,0,1,2.694,3.656,23.759,23.759,0,0,1,1.954,4.469,32.6,32.6,0,0,1,1.215,5.287A46.891,46.891,0,0,1,43.865,26.856Z" transform="translate(164.384 124.798)" fill="#fff"/>
  </g>
</svg>
