<svg xmlns="http://www.w3.org/2000/svg" width="512" height="512" viewBox="0 0 512 512">
  <g id="HobbyHub" transform="translate(0)">
    <rect id="Rectangle_1" data-name="Rectangle 1" width="512" height="512" rx="88" fill="#fff"/>
    <path id="Path_1" data-name="Path 1" d="M374.21,116.461c-42.429,0-80.689,19.5-107.72,50.746-27.025-31.248-65.286-50.746-107.714-50.746-81.9,0-148.283,72.631-148.283,162.23,0,125.5,256,299.579,256,299.579s256-174.076,256-299.579C522.492,189.092,456.1,116.461,374.21,116.461Zm0,0" transform="translate(-10.492 -91.366)" fill="#ff5050"/>
    <path id="Path_3" data-name="Path 3" d="M19.274-55.052v17.637H46.191V-55.052q0-3.779,1.7-5.669a5.729,5.729,0,0,1,4.472-1.89,5.941,5.941,0,0,1,4.556,1.869q1.743,1.869,1.743,5.69v48.5q0,3.821-1.764,5.711a5.925,5.925,0,0,1-4.535,1.89A5.684,5.684,0,0,1,47.871-.861q-1.68-1.911-1.68-5.69v-20.7H19.274v20.7q0,3.821-1.764,5.711a5.925,5.925,0,0,1-4.535,1.89A5.684,5.684,0,0,1,8.482-.861Q6.8-2.771,6.8-6.551v-48.5q0-3.779,1.659-5.669a5.7,5.7,0,0,1,4.514-1.89,5.941,5.941,0,0,1,4.556,1.869Q19.274-58.873,19.274-55.052Zm94.9,32.8a27.1,27.1,0,0,1-1.6,9.448,20.864,20.864,0,0,1-4.619,7.433,20.4,20.4,0,0,1-7.223,4.766A25.536,25.536,0,0,1,91.291,1.05,24.807,24.807,0,0,1,81.927-.63a20.8,20.8,0,0,1-7.2-4.808,20.789,20.789,0,0,1-4.619-7.391,27.022,27.022,0,0,1-1.575-9.427,27.352,27.352,0,0,1,1.6-9.532A20.743,20.743,0,0,1,74.7-39.179,20.177,20.177,0,0,1,81.927-43.9a25.5,25.5,0,0,1,9.364-1.659,25.459,25.459,0,0,1,9.448,1.68A20.552,20.552,0,0,1,108-39.095a20.691,20.691,0,0,1,4.6,7.391A27.2,27.2,0,0,1,114.177-22.256Zm-11.506,0q0-7.013-3.086-10.918a10.023,10.023,0,0,0-8.293-3.905,10.273,10.273,0,0,0-5.921,1.743,11.042,11.042,0,0,0-3.947,5.144,20.937,20.937,0,0,0-1.386,7.937A20.772,20.772,0,0,0,81.4-14.4a11.26,11.26,0,0,0,3.905,5.144,10.144,10.144,0,0,0,5.984,1.785A10,10,0,0,0,99.584-11.4Q102.671-15.327,102.671-22.256Zm31.116-33.8v17.511a26.6,26.6,0,0,1,6.593-5.144,17.563,17.563,0,0,1,8.314-1.785,18.4,18.4,0,0,1,10.015,2.708,17.788,17.788,0,0,1,6.677,7.853,28.912,28.912,0,0,1,2.373,12.2,32.7,32.7,0,0,1-1.323,9.553,22.68,22.68,0,0,1-3.842,7.538,17.358,17.358,0,0,1-6.11,4.934,17.885,17.885,0,0,1-7.916,1.743,19,19,0,0,1-4.976-.63,14.593,14.593,0,0,1-3.968-1.659,17.962,17.962,0,0,1-2.792-2.121q-1.155-1.092-3.044-3.275V-5.5a6.911,6.911,0,0,1-1.554,4.892,5.173,5.173,0,0,1-3.947,1.659A4.9,4.9,0,0,1,124.4-.609,7.241,7.241,0,0,1,122.953-5.5V-55.556a8.392,8.392,0,0,1,1.407-5.27,4.717,4.717,0,0,1,3.926-1.785,5.021,5.021,0,0,1,4.073,1.7A7.343,7.343,0,0,1,133.787-56.06ZM134.333-22q0,6.845,3.128,10.519a10.26,10.26,0,0,0,8.209,3.674,9.421,9.421,0,0,0,7.454-3.758q3.128-3.758,3.128-10.771a21.123,21.123,0,0,0-1.3-7.811,11.346,11.346,0,0,0-3.7-5.06A9.087,9.087,0,0,0,145.671-37a9.963,9.963,0,0,0-5.837,1.785,11.858,11.858,0,0,0-4.031,5.165A20.073,20.073,0,0,0,134.333-22ZM186.4-56.06v17.511A26.6,26.6,0,0,1,193-43.693a17.563,17.563,0,0,1,8.314-1.785,18.4,18.4,0,0,1,10.015,2.708A17.788,17.788,0,0,1,218-34.917a28.912,28.912,0,0,1,2.373,12.2,32.7,32.7,0,0,1-1.323,9.553,22.68,22.68,0,0,1-3.842,7.538A17.358,17.358,0,0,1,209.1-.693a17.885,17.885,0,0,1-7.916,1.743,19,19,0,0,1-4.976-.63,14.593,14.593,0,0,1-3.968-1.659,17.962,17.962,0,0,1-2.792-2.121q-1.155-1.092-3.044-3.275V-5.5A6.911,6.911,0,0,1,184.85-.609,5.173,5.173,0,0,1,180.9,1.05a4.9,4.9,0,0,1-3.884-1.659A7.241,7.241,0,0,1,175.569-5.5V-55.556a8.392,8.392,0,0,1,1.407-5.27A4.717,4.717,0,0,1,180.9-62.61a5.021,5.021,0,0,1,4.073,1.7A7.343,7.343,0,0,1,186.4-56.06ZM186.949-22q0,6.845,3.128,10.519a10.26,10.26,0,0,0,8.209,3.674,9.421,9.421,0,0,0,7.454-3.758q3.128-3.758,3.128-10.771a21.123,21.123,0,0,0-1.3-7.811,11.346,11.346,0,0,0-3.7-5.06A9.087,9.087,0,0,0,198.287-37a9.963,9.963,0,0,0-5.837,1.785,11.858,11.858,0,0,0-4.031,5.165A20.073,20.073,0,0,0,186.949-22ZM239.02,2.478l1.05-2.562L225.96-35.609a13.3,13.3,0,0,1-1.3-4.451,5.211,5.211,0,0,1,.756-2.729,5.636,5.636,0,0,1,2.079-2.016,5.47,5.47,0,0,1,2.75-.756,4.5,4.5,0,0,1,3.737,1.575,14.544,14.544,0,0,1,2.226,4.514l9.7,28.219L255.1-37.5a45.3,45.3,0,0,1,1.974-5,5.883,5.883,0,0,1,1.869-2.436,5.19,5.19,0,0,1,2.792-.63,4.917,4.917,0,0,1,2.5.693A4.836,4.836,0,0,1,266.083-43a5.042,5.042,0,0,1,.651,2.478q-.168.8-.546,2.268t-.924,2.981L250.315,3.863a45.753,45.753,0,0,1-3.779,8.1,12.436,12.436,0,0,1-4.892,4.514,18,18,0,0,1-8.209,1.575,19.955,19.955,0,0,1-7.559-1.092,3.983,3.983,0,0,1-2.52-3.989,3.873,3.873,0,0,1,1.2-3.044A5.17,5.17,0,0,1,228.1,8.86a6.541,6.541,0,0,1,1.806.252,8.58,8.58,0,0,0,1.89.252,6.822,6.822,0,0,0,3.107-.588,5.438,5.438,0,0,0,2.037-2.037A31.267,31.267,0,0,0,239.02,2.478ZM288.4-55.052v17.637h26.917V-55.052q0-3.779,1.7-5.669a5.729,5.729,0,0,1,4.472-1.89,5.941,5.941,0,0,1,4.556,1.869q1.743,1.869,1.743,5.69v48.5q0,3.821-1.764,5.711a5.925,5.925,0,0,1-4.535,1.89A5.684,5.684,0,0,1,317-.861q-1.68-1.911-1.68-5.69v-20.7H288.4v20.7q0,3.821-1.764,5.711A5.925,5.925,0,0,1,282.1,1.05,5.684,5.684,0,0,1,277.61-.861q-1.68-1.911-1.68-5.69v-48.5q0-3.779,1.659-5.669a5.7,5.7,0,0,1,4.514-1.89,5.941,5.941,0,0,1,4.556,1.869Q288.4-58.873,288.4-55.052ZM370.161-5.417v-1.47a25.579,25.579,0,0,1-4.325,4.367A15.933,15.933,0,0,1,360.881.1a20.082,20.082,0,0,1-6.131.861A15.857,15.857,0,0,1,347.3-.756a12.575,12.575,0,0,1-5.1-4.745q-2.142-3.653-2.142-10.5V-38.717a7.413,7.413,0,0,1,1.554-5.144,5.307,5.307,0,0,1,4.115-1.7,5.456,5.456,0,0,1,4.2,1.722,7.3,7.3,0,0,1,1.6,5.123v18.351a28.322,28.322,0,0,0,.672,6.7A8.045,8.045,0,0,0,354.6-9.427a6.9,6.9,0,0,0,4.724,1.533,9.614,9.614,0,0,0,5.459-1.722,10.05,10.05,0,0,0,3.737-4.493q.966-2.436.966-10.666V-38.717a7.3,7.3,0,0,1,1.6-5.123,5.406,5.406,0,0,1,4.157-1.722,5.307,5.307,0,0,1,4.115,1.7,7.413,7.413,0,0,1,1.554,5.144V-5.5A7.089,7.089,0,0,1,379.42-.588a4.959,4.959,0,0,1-3.842,1.638,5,5,0,0,1-3.884-1.7A6.869,6.869,0,0,1,370.161-5.417ZM402.915-56.06v17.511a26.6,26.6,0,0,1,6.593-5.144,17.563,17.563,0,0,1,8.314-1.785,18.4,18.4,0,0,1,10.015,2.708,17.788,17.788,0,0,1,6.677,7.853,28.912,28.912,0,0,1,2.373,12.2,32.7,32.7,0,0,1-1.323,9.553,22.68,22.68,0,0,1-3.842,7.538,17.358,17.358,0,0,1-6.11,4.934A17.885,17.885,0,0,1,417.7,1.05,19,19,0,0,1,412.72.42a14.593,14.593,0,0,1-3.968-1.659,17.963,17.963,0,0,1-2.792-2.121q-1.155-1.092-3.044-3.275V-5.5a6.911,6.911,0,0,1-1.554,4.892,5.173,5.173,0,0,1-3.947,1.659A4.9,4.9,0,0,1,393.53-.609,7.241,7.241,0,0,1,392.081-5.5V-55.556a8.392,8.392,0,0,1,1.407-5.27,4.717,4.717,0,0,1,3.926-1.785,5.021,5.021,0,0,1,4.073,1.7A7.344,7.344,0,0,1,402.915-56.06ZM403.461-22q0,6.845,3.128,10.519A10.26,10.26,0,0,0,414.8-7.811a9.421,9.421,0,0,0,7.454-3.758q3.128-3.758,3.128-10.771a21.123,21.123,0,0,0-1.3-7.811,11.346,11.346,0,0,0-3.7-5.06A9.087,9.087,0,0,0,414.8-37a9.963,9.963,0,0,0-5.837,1.785,11.858,11.858,0,0,0-4.031,5.165A20.073,20.073,0,0,0,403.461-22Z" transform="translate(36 247)" fill="#fff"/>
  </g>
</svg>
